<mxfile host="app.diagrams.net" modified="2023-10-09T17:26:45.736Z" agent="Mozilla/5.0 (Macintosh; Intel Mac OS X 10_15_7) AppleWebKit/605.1.15 (KHTML, like Gecko) Version/16.6 Safari/605.1.15" etag="OGD1sBPcuXks0y9iuB3_" version="22.0.4" type="github">
  <diagram id="C5RBs43oDa-KdzZeNtuy" name="Page-1">
    <mxGraphModel dx="954" dy="647" grid="1" gridSize="10" guides="1" tooltips="1" connect="1" arrows="1" fold="1" page="1" pageScale="1" pageWidth="827" pageHeight="1169" math="0" shadow="0">
      <root>
        <mxCell id="WIyWlLk6GJQsqaUBKTNV-0" />
        <mxCell id="WIyWlLk6GJQsqaUBKTNV-1" parent="WIyWlLk6GJQsqaUBKTNV-0" />
        <mxCell id="zkfFHV4jXpPFQw0GAbJ--0" value="Company" style="swimlane;fontStyle=2;align=center;verticalAlign=top;childLayout=stackLayout;horizontal=1;startSize=26;horizontalStack=0;resizeParent=1;resizeLast=0;collapsible=1;marginBottom=0;rounded=0;shadow=0;strokeWidth=1;" parent="WIyWlLk6GJQsqaUBKTNV-1" vertex="1">
          <mxGeometry x="270" y="70" width="160" height="570" as="geometry">
            <mxRectangle x="230" y="140" width="160" height="26" as="alternateBounds" />
          </mxGeometry>
        </mxCell>
        <mxCell id="h0ppuAmfMS2VEDfeeIu_-18" value="id" style="rounded=0;whiteSpace=wrap;html=1;gradientColor=none;fillColor=none;" vertex="1" parent="zkfFHV4jXpPFQw0GAbJ--0">
          <mxGeometry y="26" width="160" height="32" as="geometry" />
        </mxCell>
        <mxCell id="h0ppuAmfMS2VEDfeeIu_-19" value="userid" style="rounded=0;whiteSpace=wrap;html=1;gradientColor=none;fillColor=none;" vertex="1" parent="zkfFHV4jXpPFQw0GAbJ--0">
          <mxGeometry y="58" width="160" height="32" as="geometry" />
        </mxCell>
        <mxCell id="h0ppuAmfMS2VEDfeeIu_-20" value="company name" style="rounded=0;whiteSpace=wrap;html=1;gradientColor=none;fillColor=none;" vertex="1" parent="zkfFHV4jXpPFQw0GAbJ--0">
          <mxGeometry y="90" width="160" height="32" as="geometry" />
        </mxCell>
        <mxCell id="h0ppuAmfMS2VEDfeeIu_-22" value="logoimageurl&lt;br&gt;" style="rounded=0;whiteSpace=wrap;html=1;gradientColor=none;fillColor=none;" vertex="1" parent="zkfFHV4jXpPFQw0GAbJ--0">
          <mxGeometry y="122" width="160" height="32" as="geometry" />
        </mxCell>
        <mxCell id="h0ppuAmfMS2VEDfeeIu_-21" value="coverphotourl" style="rounded=0;whiteSpace=wrap;html=1;gradientColor=none;fillColor=none;" vertex="1" parent="zkfFHV4jXpPFQw0GAbJ--0">
          <mxGeometry y="154" width="160" height="32" as="geometry" />
        </mxCell>
        <mxCell id="h0ppuAmfMS2VEDfeeIu_-23" value="currency" style="rounded=0;whiteSpace=wrap;html=1;gradientColor=none;fillColor=none;" vertex="1" parent="zkfFHV4jXpPFQw0GAbJ--0">
          <mxGeometry y="186" width="160" height="32" as="geometry" />
        </mxCell>
        <mxCell id="h0ppuAmfMS2VEDfeeIu_-24" value="description" style="rounded=0;whiteSpace=wrap;html=1;gradientColor=none;fillColor=none;" vertex="1" parent="zkfFHV4jXpPFQw0GAbJ--0">
          <mxGeometry y="218" width="160" height="32" as="geometry" />
        </mxCell>
        <mxCell id="h0ppuAmfMS2VEDfeeIu_-25" value="company color" style="rounded=0;whiteSpace=wrap;html=1;gradientColor=none;fillColor=none;" vertex="1" parent="zkfFHV4jXpPFQw0GAbJ--0">
          <mxGeometry y="250" width="160" height="32" as="geometry" />
        </mxCell>
        <mxCell id="h0ppuAmfMS2VEDfeeIu_-26" value="default language" style="rounded=0;whiteSpace=wrap;html=1;gradientColor=none;fillColor=none;" vertex="1" parent="zkfFHV4jXpPFQw0GAbJ--0">
          <mxGeometry y="282" width="160" height="32" as="geometry" />
        </mxCell>
        <mxCell id="h0ppuAmfMS2VEDfeeIu_-27" value="&lt;div style=&quot;font-style: normal; font-variant-caps: normal; font-weight: normal; letter-spacing: normal; text-align: start; text-indent: 0px; text-transform: none; word-spacing: 0px; -webkit-text-stroke-width: 0px; text-decoration: none; font-family: Menlo, Monaco, &amp;quot;Courier New&amp;quot;, monospace; font-size: 12px; line-height: 18px;&quot;&gt;&lt;div&gt;&lt;span style=&quot;&quot;&gt;stripesubscriptionid&lt;/span&gt;&lt;/div&gt;&lt;/div&gt;" style="rounded=0;whiteSpace=wrap;html=1;gradientColor=none;fillColor=none;fontColor=default;labelBackgroundColor=default;" vertex="1" parent="zkfFHV4jXpPFQw0GAbJ--0">
          <mxGeometry y="314" width="160" height="32" as="geometry" />
        </mxCell>
        <mxCell id="h0ppuAmfMS2VEDfeeIu_-28" value="&lt;div style=&quot;text-align: start; font-family: Menlo, Monaco, &amp;quot;Courier New&amp;quot;, monospace; line-height: 18px;&quot;&gt;stripecustomerid&lt;/div&gt;" style="rounded=0;whiteSpace=wrap;html=1;gradientColor=none;fillColor=none;labelBackgroundColor=default;fontColor=default;" vertex="1" parent="zkfFHV4jXpPFQw0GAbJ--0">
          <mxGeometry y="346" width="160" height="32" as="geometry" />
        </mxCell>
        <mxCell id="h0ppuAmfMS2VEDfeeIu_-29" value="&lt;div style=&quot;text-align: start; font-family: Menlo, Monaco, &amp;quot;Courier New&amp;quot;, monospace; line-height: 18px;&quot;&gt;&lt;div style=&quot;line-height: 18px;&quot;&gt;paymentMethods&lt;/div&gt;&lt;/div&gt;" style="rounded=0;whiteSpace=wrap;html=1;gradientColor=none;fillColor=none;labelBackgroundColor=none;fontColor=default;" vertex="1" parent="zkfFHV4jXpPFQw0GAbJ--0">
          <mxGeometry y="378" width="160" height="32" as="geometry" />
        </mxCell>
        <mxCell id="h0ppuAmfMS2VEDfeeIu_-30" value="&lt;div style=&quot;text-align: start; font-family: Menlo, Monaco, &amp;quot;Courier New&amp;quot;, monospace; line-height: 18px;&quot;&gt;&lt;div style=&quot;line-height: 18px;&quot;&gt;voidReasons&lt;/div&gt;&lt;/div&gt;" style="rounded=0;whiteSpace=wrap;html=1;gradientColor=none;fillColor=none;labelBackgroundColor=none;fontColor=default;" vertex="1" parent="zkfFHV4jXpPFQw0GAbJ--0">
          <mxGeometry y="410" width="160" height="32" as="geometry" />
        </mxCell>
        <mxCell id="h0ppuAmfMS2VEDfeeIu_-31" value="&lt;div style=&quot;text-align: start; font-family: Menlo, Monaco, &amp;quot;Courier New&amp;quot;, monospace; line-height: 18px;&quot;&gt;&lt;div style=&quot;line-height: 18px;&quot;&gt;printer address&lt;/div&gt;&lt;/div&gt;" style="rounded=0;whiteSpace=wrap;html=1;gradientColor=none;fillColor=none;labelBackgroundColor=none;fontColor=default;" vertex="1" parent="zkfFHV4jXpPFQw0GAbJ--0">
          <mxGeometry y="442" width="160" height="32" as="geometry" />
        </mxCell>
        <mxCell id="h0ppuAmfMS2VEDfeeIu_-33" value="&lt;div style=&quot;text-align: start; font-family: Menlo, Monaco, &amp;quot;Courier New&amp;quot;, monospace; line-height: 18px;&quot;&gt;&lt;div style=&quot;line-height: 18px;&quot;&gt;tax amount&lt;/div&gt;&lt;/div&gt;" style="rounded=0;whiteSpace=wrap;html=1;gradientColor=none;fillColor=none;labelBackgroundColor=none;fontColor=default;" vertex="1" parent="zkfFHV4jXpPFQw0GAbJ--0">
          <mxGeometry y="474" width="160" height="32" as="geometry" />
        </mxCell>
        <mxCell id="h0ppuAmfMS2VEDfeeIu_-32" value="&lt;div style=&quot;text-align: start; font-family: Menlo, Monaco, &amp;quot;Courier New&amp;quot;, monospace; line-height: 18px;&quot;&gt;&lt;div style=&quot;line-height: 18px;&quot;&gt;servicescharge&lt;/div&gt;&lt;/div&gt;" style="rounded=0;whiteSpace=wrap;html=1;gradientColor=none;fillColor=none;labelBackgroundColor=none;fontColor=default;" vertex="1" parent="zkfFHV4jXpPFQw0GAbJ--0">
          <mxGeometry y="506" width="160" height="32" as="geometry" />
        </mxCell>
        <mxCell id="zkfFHV4jXpPFQw0GAbJ--6" value="Users" style="swimlane;fontStyle=0;align=center;verticalAlign=top;childLayout=stackLayout;horizontal=1;startSize=26;horizontalStack=0;resizeParent=1;resizeLast=0;collapsible=1;marginBottom=0;rounded=0;shadow=0;strokeWidth=1;fillColor=none;" parent="WIyWlLk6GJQsqaUBKTNV-1" vertex="1">
          <mxGeometry x="30" y="20" width="160" height="380" as="geometry">
            <mxRectangle x="130" y="380" width="160" height="26" as="alternateBounds" />
          </mxGeometry>
        </mxCell>
        <mxCell id="h0ppuAmfMS2VEDfeeIu_-0" value="id" style="rounded=0;whiteSpace=wrap;html=1;gradientColor=none;fillColor=none;" vertex="1" parent="zkfFHV4jXpPFQw0GAbJ--6">
          <mxGeometry y="26" width="160" height="32" as="geometry" />
        </mxCell>
        <mxCell id="h0ppuAmfMS2VEDfeeIu_-6" value="name" style="rounded=0;whiteSpace=wrap;html=1;gradientColor=none;fillColor=none;" vertex="1" parent="zkfFHV4jXpPFQw0GAbJ--6">
          <mxGeometry y="58" width="160" height="32" as="geometry" />
        </mxCell>
        <mxCell id="h0ppuAmfMS2VEDfeeIu_-7" value="email" style="rounded=0;whiteSpace=wrap;html=1;gradientColor=none;fillColor=none;" vertex="1" parent="zkfFHV4jXpPFQw0GAbJ--6">
          <mxGeometry y="90" width="160" height="32" as="geometry" />
        </mxCell>
        <mxCell id="h0ppuAmfMS2VEDfeeIu_-8" value="password&lt;br&gt;" style="rounded=0;whiteSpace=wrap;html=1;gradientColor=none;fillColor=none;align=center;" vertex="1" parent="zkfFHV4jXpPFQw0GAbJ--6">
          <mxGeometry y="122" width="160" height="32" as="geometry" />
        </mxCell>
        <mxCell id="h0ppuAmfMS2VEDfeeIu_-9" value="token&lt;br&gt;" style="rounded=0;whiteSpace=wrap;html=1;gradientColor=none;fillColor=none;" vertex="1" parent="zkfFHV4jXpPFQw0GAbJ--6">
          <mxGeometry y="154" width="160" height="32" as="geometry" />
        </mxCell>
        <mxCell id="h0ppuAmfMS2VEDfeeIu_-11" value="createat" style="rounded=0;whiteSpace=wrap;html=1;gradientColor=none;fillColor=none;" vertex="1" parent="zkfFHV4jXpPFQw0GAbJ--6">
          <mxGeometry y="186" width="160" height="32" as="geometry" />
        </mxCell>
        <mxCell id="h0ppuAmfMS2VEDfeeIu_-17" value="updateat" style="rounded=0;whiteSpace=wrap;html=1;gradientColor=none;fillColor=none;" vertex="1" parent="zkfFHV4jXpPFQw0GAbJ--6">
          <mxGeometry y="218" width="160" height="32" as="geometry" />
        </mxCell>
        <mxCell id="h0ppuAmfMS2VEDfeeIu_-13" value="pincode" style="rounded=0;whiteSpace=wrap;html=1;gradientColor=none;fillColor=none;" vertex="1" parent="zkfFHV4jXpPFQw0GAbJ--6">
          <mxGeometry y="250" width="160" height="32" as="geometry" />
        </mxCell>
        <mxCell id="h0ppuAmfMS2VEDfeeIu_-14" value="emailverify" style="rounded=0;whiteSpace=wrap;html=1;gradientColor=none;fillColor=none;" vertex="1" parent="zkfFHV4jXpPFQw0GAbJ--6">
          <mxGeometry y="282" width="160" height="32" as="geometry" />
        </mxCell>
        <mxCell id="h0ppuAmfMS2VEDfeeIu_-15" value="phonenumber" style="rounded=0;whiteSpace=wrap;html=1;gradientColor=none;fillColor=none;" vertex="1" parent="zkfFHV4jXpPFQw0GAbJ--6">
          <mxGeometry y="314" width="160" height="32" as="geometry" />
        </mxCell>
        <mxCell id="h0ppuAmfMS2VEDfeeIu_-16" value="companyid" style="rounded=0;whiteSpace=wrap;html=1;gradientColor=none;fillColor=none;" vertex="1" parent="zkfFHV4jXpPFQw0GAbJ--6">
          <mxGeometry y="346" width="160" height="32" as="geometry" />
        </mxCell>
        <mxCell id="h0ppuAmfMS2VEDfeeIu_-38" value="" style="endArrow=classic;startArrow=classic;html=1;rounded=0;entryX=0;entryY=0.5;entryDx=0;entryDy=0;exitX=1;exitY=0.5;exitDx=0;exitDy=0;" edge="1" parent="WIyWlLk6GJQsqaUBKTNV-1" source="h0ppuAmfMS2VEDfeeIu_-0" target="h0ppuAmfMS2VEDfeeIu_-19">
          <mxGeometry width="50" height="50" relative="1" as="geometry">
            <mxPoint x="290" y="570" as="sourcePoint" />
            <mxPoint x="340" y="520" as="targetPoint" />
          </mxGeometry>
        </mxCell>
        <mxCell id="h0ppuAmfMS2VEDfeeIu_-42" value="" style="curved=1;endArrow=classic;html=1;rounded=0;exitX=1;exitY=0.5;exitDx=0;exitDy=0;entryX=0;entryY=0.75;entryDx=0;entryDy=0;" edge="1" parent="WIyWlLk6GJQsqaUBKTNV-1" source="h0ppuAmfMS2VEDfeeIu_-16" target="h0ppuAmfMS2VEDfeeIu_-18">
          <mxGeometry width="50" height="50" relative="1" as="geometry">
            <mxPoint x="200" y="380" as="sourcePoint" />
            <mxPoint x="250" y="330" as="targetPoint" />
            <Array as="points">
              <mxPoint x="250" y="380" />
              <mxPoint x="200" y="330" />
            </Array>
          </mxGeometry>
        </mxCell>
        <mxCell id="h0ppuAmfMS2VEDfeeIu_-48" value="MenuItems" style="swimlane;fontStyle=0;align=center;verticalAlign=top;childLayout=stackLayout;horizontal=1;startSize=26;horizontalStack=0;resizeParent=1;resizeLast=0;collapsible=1;marginBottom=0;rounded=0;shadow=0;strokeWidth=1;fillColor=none;" vertex="1" parent="WIyWlLk6GJQsqaUBKTNV-1">
          <mxGeometry x="530" y="90" width="160" height="380" as="geometry">
            <mxRectangle x="130" y="380" width="160" height="26" as="alternateBounds" />
          </mxGeometry>
        </mxCell>
        <mxCell id="h0ppuAmfMS2VEDfeeIu_-49" value="id" style="rounded=0;whiteSpace=wrap;html=1;gradientColor=none;fillColor=none;" vertex="1" parent="h0ppuAmfMS2VEDfeeIu_-48">
          <mxGeometry y="26" width="160" height="32" as="geometry" />
        </mxCell>
        <mxCell id="h0ppuAmfMS2VEDfeeIu_-50" value="items name" style="rounded=0;whiteSpace=wrap;html=1;gradientColor=none;fillColor=none;" vertex="1" parent="h0ppuAmfMS2VEDfeeIu_-48">
          <mxGeometry y="58" width="160" height="32" as="geometry" />
        </mxCell>
        <mxCell id="h0ppuAmfMS2VEDfeeIu_-51" value="price" style="rounded=0;whiteSpace=wrap;html=1;gradientColor=none;fillColor=none;" vertex="1" parent="h0ppuAmfMS2VEDfeeIu_-48">
          <mxGeometry y="90" width="160" height="32" as="geometry" />
        </mxCell>
        <mxCell id="h0ppuAmfMS2VEDfeeIu_-52" value="discount" style="rounded=0;whiteSpace=wrap;html=1;gradientColor=none;fillColor=none;align=center;" vertex="1" parent="h0ppuAmfMS2VEDfeeIu_-48">
          <mxGeometry y="122" width="160" height="32" as="geometry" />
        </mxCell>
        <mxCell id="h0ppuAmfMS2VEDfeeIu_-53" value="token&lt;br&gt;" style="rounded=0;whiteSpace=wrap;html=1;gradientColor=none;fillColor=none;" vertex="1" parent="h0ppuAmfMS2VEDfeeIu_-48">
          <mxGeometry y="154" width="160" height="32" as="geometry" />
        </mxCell>
        <mxCell id="h0ppuAmfMS2VEDfeeIu_-54" value="createat" style="rounded=0;whiteSpace=wrap;html=1;gradientColor=none;fillColor=none;" vertex="1" parent="h0ppuAmfMS2VEDfeeIu_-48">
          <mxGeometry y="186" width="160" height="32" as="geometry" />
        </mxCell>
        <mxCell id="h0ppuAmfMS2VEDfeeIu_-55" value="updateat" style="rounded=0;whiteSpace=wrap;html=1;gradientColor=none;fillColor=none;" vertex="1" parent="h0ppuAmfMS2VEDfeeIu_-48">
          <mxGeometry y="218" width="160" height="32" as="geometry" />
        </mxCell>
        <mxCell id="h0ppuAmfMS2VEDfeeIu_-56" value="pincode" style="rounded=0;whiteSpace=wrap;html=1;gradientColor=none;fillColor=none;" vertex="1" parent="h0ppuAmfMS2VEDfeeIu_-48">
          <mxGeometry y="250" width="160" height="32" as="geometry" />
        </mxCell>
        <mxCell id="h0ppuAmfMS2VEDfeeIu_-57" value="emailverify" style="rounded=0;whiteSpace=wrap;html=1;gradientColor=none;fillColor=none;" vertex="1" parent="h0ppuAmfMS2VEDfeeIu_-48">
          <mxGeometry y="282" width="160" height="32" as="geometry" />
        </mxCell>
        <mxCell id="h0ppuAmfMS2VEDfeeIu_-58" value="phonenumber" style="rounded=0;whiteSpace=wrap;html=1;gradientColor=none;fillColor=none;" vertex="1" parent="h0ppuAmfMS2VEDfeeIu_-48">
          <mxGeometry y="314" width="160" height="32" as="geometry" />
        </mxCell>
        <mxCell id="h0ppuAmfMS2VEDfeeIu_-59" value="companyid" style="rounded=0;whiteSpace=wrap;html=1;gradientColor=none;fillColor=none;" vertex="1" parent="h0ppuAmfMS2VEDfeeIu_-48">
          <mxGeometry y="346" width="160" height="32" as="geometry" />
        </mxCell>
      </root>
    </mxGraphModel>
  </diagram>
</mxfile>
